<?xml version="1.0" encoding="utf-8"?>

<!DOCTYPE svg PUBLIC "-//W3C//DTD SVG 1.1//EN" "http://www.w3.org/Graphics/SVG/1.1/DTD/svg11.dtd">
<svg version="1.1" id="Layer_1" xmlns="http://www.w3.org/2000/svg" xmlns:xlink="http://www.w3.org/1999/xlink" x="0px" y="0px"
	 viewBox="0 0 836.526 1710.922" enable-background="new 0 0 836.526 1710.922" xml:space="preserve">
<path d="M450.112,56.024c1.556-0.045,3.243-1.195,4.664-0.075c2.435,0.176,4.88,0.065,7.32,0.12c0.959,1.32,2.621,1.004,4.047,0.999
	c0.01,0.246,0.035,0.738,0.045,0.984c0.372,0.01,1.12,0.025,1.491,0.035c1.019,1.019,2.46,0.919,3.776,1.15
	c1.115,0.457,2.179,1.145,3.439,1.09c0.085,1.11,0.864,1.898,1.561,2.686c5.376,0.729,0.213,0.326,4.735,1.16
	c0.015,0.171,0.05,0.517,0.065,0.688c0.929,0.03,1.802,0.311,2.621,0.753c-0.146-0.291-0.437-0.869-0.582-1.155
	c0.447-0.07,1.341-0.201,1.787-0.266c-0.668,1.943,1.356,3.193,1.888,4.885c0.151,0.01,0.457,0.03,0.608,0.045
	c0.572,1.295,1.205,2.566,1.833,3.841c1.331-0.015,1.095,1.165,0.949,2.089c0.336,0.04,1.004,0.12,1.341,0.161
	c0.09,0.608,0.181,1.22,0.281,1.828c1.592-0.126,3.148-0.547,4.755-0.633c-0.055-0.291-0.171-0.874-0.226-1.16
	c0.849,0.085,1.712,0.171,2.576,0.256c-0.04-0.291-0.115-0.884-0.151-1.175c1.491-0.191,3.038,0.015,4.504-0.341
	c0.131-0.196,0.392-0.587,0.522-0.783c1.491,0.146,3.013-0.813,4.443-0.151c1.583,0.046,20.144,0.258,22.267-0.206
	c2.259,0.442,4.584,0.221,6.864,0.577c0.728,0.542,1.471,1.074,2.199,1.632c0.311,0.025,0.924,0.075,1.23,0.1
	c0.005,0.246,0.02,0.733,0.03,0.974c0.969,0,1.948,0,2.932-0.005c0.341,0.442,0.698,0.889,1.059,1.331
	c0.437-0.12,0.879-0.241,1.331-0.351c0.492,0.874,1.511,1.15,2.169,1.868c2.724,0.516,2.735,0.813,5.267,2.5
	c1.034,0.095,1.647,0.904,2.345,1.577c0.628,0.09,1.265,0.151,1.913,0.181c0.135,0.186,0.397,0.557,0.532,0.743
	c0.653,0.221,1.26,0.572,1.752,1.079c2.315-0.095,4.308,1.25,5.568,3.108c0.593,0.005,1.195,0.015,1.808,0.02
	c0.095,0.226,0.276,0.678,0.367,0.904c0.597,0.07,1.205,0.141,1.818,0.221c0.979,1.461,3.007,0.909,4.514,1.12
	c0.437,0.517,0.899,1.024,1.361,1.536c0.612,0.296,1.175,0.683,1.682,1.16c0.306,0.05,0.919,0.151,1.225,0.201
	c0.703,0.673,1.406,1.341,2.134,2.008c0.09-0.306,0.276-0.919,0.372-1.22c0.12,1.095,0.929,1.797,1.772,2.405
	c0.492-0.367,0.984-0.748,1.476-1.125c-0.271,0.843-0.537,1.682-0.808,2.52c2.395,0.939,3.826,3.299,5.332,5.262
	c0.231,0.09,0.688,0.266,0.914,0.351c0.848,1.496,1.823,2.932,2.435,4.554c0.392-0.597,0.753-1.21,1.125-1.823
	c0.005,0.984-1.069,2.505,0.276,2.962c0.231-0.186,0.693-0.562,0.924-0.753c-0.221,0.718-0.407,1.446-0.572,2.179
	c1.275,1.32,2.244,2.897,2.872,4.624c0.156,0.01,0.467,0.04,0.623,0.055c1.305,3.351,5.844,10.18,5.844,12.763
	c1.059,1.747,1.11,3.921,2.289,5.588c0.06,0.462,0.131,0.929,0.206,1.396c1.553,3.098,2.753,14.182,1.491,17.151
	c0.758-0.03,1.521-0.05,2.289-0.07c-0.08,0.387-0.241,1.155-0.321,1.536c0.422,0.377,0.844,0.758,1.275,1.14
	c-0.613,0.743-0.899,1.787-0.04,2.455c-1.26-0.095-2.52-0.136-3.771-0.156c0.331,0.969,0.698,1.943,1.059,2.912
	c-0.582,0.09-1.14,0.236-1.672,0.437c-0.392,0.562,0.251,1.14,0.367,1.702c-0.176,0.01-0.532,0.035-0.708,0.045
	c-0.07,0.894,0.176,1.913-0.462,2.661c0.02,0.422,0.06,1.27,0.08,1.692c-0.136,0.065-0.412,0.196-0.547,0.261
	c-0.1-0.402-0.306-1.205-0.407-1.607c-1.014,0.592-0.954,1.813-1.135,2.802c-0.512,5.317-0.783,10.815-2.987,15.765
	c-0.949,2.084-0.884,4.464-1.913,6.517c-0.768,1.451-1.115,3.068-1.305,4.684c-0.196,0.196-0.587,0.582-0.783,0.778
	c-0.628,2.782-2.044,5.372-2.028,8.284c0.497,1.998,0.643,4.212,0.055,6.201c-1.255,1.541-3.043,2.546-4.659,3.67
	c-0.11,0.577-0.211,1.155-0.301,1.732c-0.562,0.02-1.12,0.04-1.667,0.06c-0.015,0.251-0.04,0.748-0.055,0.999
	c-0.251-0.01-0.758-0.03-1.014-0.04c0.09,0.532,0.196,1.064,0.296,1.602c-0.663,0.512-1.305,1.034-1.953,1.556
	c-0.075,0.236-0.231,0.708-0.311,0.944c-1.737-0.241-3.52-0.562-5.237-0.03c0.08,0.869,0.206,1.762,0.974,2.315
	c0.151,0.427,0.316,0.864,0.482,1.3c-1.155-0.01-2.089,0.618-3.007,1.22c-5.378,8.993,5.922,13.544-1.612,22.061
	c-1.431,0.331-2.792,0.869-4.162,1.371c-0.005,0.316-0.005,0.939-0.01,1.255c-1.215,0.045-1.451,1.325-1.973,2.164
	c-4.669,8.369-6.384,7.455-7.426,10.981c-0.703,2.41-2.385,4.333-3.941,6.231c-1.839,1.266-7.33,6.849-7.501,8.264
	c-1.419,8.004-6.049,6.67-7.25,7.667c-2.44,1.657-3.304,4.659-5.041,6.919c-6.59,8.44-8.32,13.441-21.61,9.424
	c-0.181-0.151-0.547-0.452-0.733-0.607c-4.499-1.953,1.15-1.288-7.381-2.36c-1.843-0.055-3.495-0.934-5.076-1.782
	c-0.367-0.04-1.095-0.126-1.461-0.171c-0.151-0.216-0.452-0.648-0.598-0.864c-1.325-0.377-2.701-0.407-4.057-0.367
	c-2.059,4.549-3.525,9.379-4.529,14.269c0.216,0.206,0.638,0.628,0.849,0.838c0.924,0.367,1.813,0.813,2.696,1.285
	c-0.06,0.186-0.186,0.557-0.246,0.743c1.054,0.427,2.084,0.924,3.118,1.416c0.05,0.823,0.266,1.667,1.095,2.054
	c1.667,1.305,2.515,3.58,4.559,4.348c0.05-0.402,0.156-1.2,0.211-1.602c0.025,0.823,0.025,1.642,0.065,2.475
	c0.316-0.045,0.949-0.146,1.27-0.196c-0.246,0.392-0.482,0.793-0.698,1.2c0.638,0.818,1.386,1.546,2.119,2.289
	c2.003,1.341,2.566,4.323,5.111,4.835c-0.241,0.02-0.723,0.07-0.964,0.09c0.638,0.934,1.32,1.858,1.978,2.787
	c0.246-0.07,0.728-0.216,0.969-0.286c-0.206,0.196-0.618,0.582-0.823,0.778c2.134,0.793,4.584,1.054,6.346,2.616
	c0.698,0.648,1.712,0.592,2.591,0.833c1.878,1.471,3.992,2.756,6.321,3.374c1,0.734,5.875,4.849,11.026,5.754
	c-0.01,0.181-0.035,0.537-0.05,0.718c1.095,0.135,17.486,8.937,18.933,9.851c8.495,4.388,24.071,24.263,33.524,51.217
	c1.32,3.655,1.737,7.833,4.418,10.84c15.283,17.874,14.501,18.335,16.343,18.803c-0.105,0.798,0.412,1.341,0.974,1.848
	c2.43-5.001,4.79-10.222,5.322-15.826c1.574-18.696,1.062-79.062-9.349-86.81c-7.699-2.187-4.54,3.921-16.162-1.351
	c-0.085-0.141-0.246-0.427-0.331-0.567c-2.345-0.231-3.173-2.822-5.277-3.58c-0.653-0.341-1.32-0.653-1.978-0.944
	c-1.883-1.607-4.589-1.697-6.311-3.5c-0.241-0.08-0.718-0.246-0.959-0.326c-1.381-1.536-3.188-2.576-4.845-3.766
	c-0.914-0.206-1.828-0.407-2.736-0.592c-1.54-2.96-1.959-3.875,1.526-7.953c0.793-0.211,1.456-0.658,1.898-1.361
	c0.136,0.055,0.412,0.166,0.552,0.221c0.758-1.782,3.133-0.673,4.313-1.998c0.743,1.315,2.46,0.467,3.67,0.557
	c1.426,0.231,2.862,0.356,4.308,0.477c1.14,1.828,3.294,3.018,5.473,2.721c-0.06,0.236-0.181,0.698-0.241,0.934
	c1.145,0.075,2.3,0.186,3.454,0.291c0.482-0.582,0.979-1.155,1.496-1.712c1.3-3.193,2.872-6.326,3.469-9.755
	c1.05-16.746-21.187-39.264-15.218-54.225c-4.376-8.985-4.417-12.586-1.18-16.127c-0.351-0.206-0.693-0.412-1.024-0.613
	c0.954,0.025,1.918,0.055,2.882,0.105c0.311-0.447,0.628-0.889,0.954-1.336c1.419,0.4,0.012-0.114,2.505,1.069
	c0.231,0.698,0.472,1.386,0.743,2.084c0.346,0.025,1.039,0.08,1.386,0.105c-0.372,0.171-0.733,0.341-1.09,0.517
	c1.12,2.033,2.862,3.6,4.348,5.352c0.181,0.065,0.542,0.186,0.723,0.246c0.608,1.587,1.225,3.484,3.193,3.735
	c-1.219-7.049-4.896-9.153,2.094-14.319c0.02-0.351,0.055-1.054,0.075-1.406c0.12,0.241,0.367,0.713,0.492,0.949
	c0.612-0.126,1.235-0.251,1.868-0.367c1.948,1.501,2.631,3.921,3.705,6.03c1.496-0.256,2.264-1.732,3.349-2.651
	c1.069-0.05,2.184-0.281,3.238,0.09c1.702,2.546,3.746,4.835,4.991,7.667c1.993,2.45,3.74,5.081,5.071,7.963
	c0.341-0.231,0.688-0.462,1.044-0.688c0.005,0.372,0.01,1.11,0.01,1.481c1.667,2.972,3.926,5.543,6.221,8.043
	c0.387-0.201,0.783-0.402,1.19-0.592c1.006,4.643,2.187,1.859,5.141,7.923c1.51,9.9,4.717,19.766,6.135,22.764
	c1.361,5.874,1.386,12.065,3.389,17.789c2.059,4.268,2.455,9.063,4.197,13.451c0.959,3.264,3.505,5.995,3.565,9.525
	c2.125,76.513,19.668,84.228,13.662,165.19c-0.902,29.35-0.968,33.988-3.806,38.64c-12.833,23.925-47,4.209-65.788-5.99
	c-42.973-24.738-50.547-50.766-58.051-57.614c-2.407,25.984-13.93,26.637-35.362,48.878c0.311,1.326,0.05,2.661-0.336,3.946
	c-1.044,1.531-2.32,2.882-3.781,4.027c-2.664,2.664-1.546,13.428-3.58,16.85c-4.478,23.745-11.526,42.325-11.704,55.761
	c2.671-0.377,5.191-1.376,7.717-2.295c105.046-33.254,118.386-32.188,118.386-32.188c22.094-1.499,43.506-9.504,65.887-8.539
	c91.019,3.928,37.908,117.161,25.944,220.914c-24.866,133.195-18.426,93.822-7.486,219.837c6.038-3.369,11.66,0.969,12.411,4.383
	c1.531,3.424-1.059,6.909-0.778,10.403c1.847,5.006-0.595,5.165,3.479,11.448c2.013,4.863,5.331,11.645,0.718,15.298
	c0.125,0.417,0.271,0.849,0.442,1.285c1.619,0.714,3.212,1.895,4.85,2.566c2.972,2.462,10.149,7.465,6.648,17.488
	c-1.049,2.063-1.597,4.438-3.289,6.11c-1.255,0.462-2.475,1.029-3.771,1.376c-0.045,1.943,2.008,2.756,2.485,4.484
	c0.206,0.638,0.351,1.315,0.522,1.998c3.213,3.792,9.404,9.74,10.679,11.869c-0.055,0.382-0.161,1.155-0.216,1.536
	c-3.925-0.364-8.147-8.522-11.332-9.796c0.105,0.748,0.266,1.531,0.487,2.285c-0.125,1.265-0.361,2.525-0.668,3.781
	c0.878,6.103,2.086,2.887,2.541,8.38c-4.112,5.085-1.441,0.295-4.147,8.39c-0.035,3.525,11.922,19.863,12.924,20.821
	c0.055,0.251,0.161,0.753,0.216,0.999c3.424,4.75,6.301,9.971,10.554,14.073c0.969,1.26,2.47,2.455,2.289,4.233
	c0.045,3.419,0.783,7.225-0.879,10.373c-0.045,0.321-0.141,0.969-0.186,1.29c-0.291,0.296-0.572,0.608-0.849,0.929
	c-0.151,0.597-0.301,1.205-0.447,1.823c0.412,2.601-1.873,4.288-3.414,5.99c-4.023,5.177-22.094,4.871-26.796,0.427
	c-1.446,0.075-2.872-0.045-4.182-0.683c-1.024-0.633-2.013,0.256-2.997,0.497c-1.331-0.206-2.636-0.567-3.961-0.748
	c-2.045-1.249-5.061-2.234-5.061-2.234c-0.397-0.683-0.608-1.441-0.944-2.114c-1.797-0.527-4.212-0.904-4.915-2.917
	c-1.561,0.427-3.173,0.658-4.785,0.487c-0.07-0.241-0.216-0.723-0.291-0.969c-0.392-0.02-1.175-0.07-1.567-0.095
	c-0.321-0.326-0.633-0.643-0.939-0.939c-0.326-0.045-0.979-0.125-1.31-0.166c-0.633-0.593-3.536-2.57-4.644-3.173
	c-0.075-0.758,0.522-1.848-0.231-2.33c-1.396-0.417-2.721-1.034-3.911-1.858c-0.201-0.507-0.417-0.989-0.648-1.451
	c-2.277-0.693-1.694,2.359-5.558-0.316c-0.487-0.578-0.979-1.125-1.466-1.672c-0.316-0.045-0.954-0.136-1.27-0.181
	c-0.346-0.422-0.688-0.828-1.029-1.22c0.11-0.859,0.246-1.692,0.397-2.52c-1.772,0.176-2.952-1.275-4.147-2.32
	c-5.082,0.191-3.967-1.009-7.612-3.756c-0.256-0.085-0.778-0.256-1.034-0.341c-0.311-0.437-0.618-0.859-0.914-1.26
	c0.01-0.874,0.025-1.727,0.035-2.571c-1.11-0.547-1.923-1.461-2.636-2.425c0.06-0.663,0.125-1.315,0.201-1.948
	c-0.356-0.02-1.069-0.065-1.426-0.085c-0.201,0.452-0.392,0.924-0.572,1.406c-0.03-0.181-0.08-0.547-0.11-0.728
	c-1.326-0.07-2.51-0.602-3.49-1.461c-0.176-0.552-0.351-1.095-0.512-1.612c-0.703-0.537-1.401-1.08-2.104-1.582
	c-0.075-0.457-0.141-0.894-0.201-1.32c-0.793-0.527-1.285-1.3-1.642-2.139c0.372-0.924,0.733-1.853,0.999-2.797
	c-0.326-0.482-0.879-0.688-1.31-0.989c-0.507-0.949-1.029-1.863-1.637-2.726c-0.246,0.095-0.738,0.286-0.989,0.382
	c-0.306-0.075-0.919-0.221-1.225-0.291c-0.562-0.879-1.09-1.757-1.587-2.646c-0.231-0.06-0.698-0.181-0.929-0.246
	c-0.301-0.964-0.613-1.913-0.909-2.857c-0.507-0.151-0.999-0.286-1.486-0.407c-0.522-1.597-0.713-3.289-0.035-4.86
	c-0.783-1.707-1.602-3.449-1.531-5.362c-1.541,0.342-3.203,0.758-4.383-0.602c-0.357-2.398-5.237-8.616-6.361-12.411
	c0.462-0.638,0.919-1.265,1.381-1.888c-0.708-0.954-1.285-1.988-1.777-3.053c-3.173,0.618-4.489-2.781-5.97-4.865
	c-0.181-0.517-0.351-1.019-0.512-1.511c-0.427-0.482-0.849-0.979-1.255-1.436c-0.07-0.568-0.136-1.12-0.186-1.662
	c-0.301-0.09-0.899-0.271-1.195-0.361c-1.482-2.084,0.634-2.946-1.828-7.265c0.01-0.934,0.01-1.858,0.005-2.766
	c-0.532,0.351-1.024,0.748-1.496,1.18c-0.698-0.005-1.386,0-2.064,0.02c-0.964-1.225-2.114-2.35-2.566-3.876
	c-0.221-0.065-0.668-0.206-0.889-0.271c-0.623-1.089-1.356-2.149-1.577-3.389c0.126-1.054,0.467-2.054,0.718-3.063
	c-0.859-0.296-1.351-1.034-1.828-1.722c-2.711-0.191-4.825-2.164-5.854-4.569c-0.296-0.09-0.884-0.271-1.18-0.362
	c-0.321-0.854-0.633-1.712-0.944-2.546c-1.446-1.089-1.491-2.827-1.13-4.453c-0.849-1.341-1.838-2.716-1.2-4.358
	c-1.32,0.08-2.626,0.276-3.916,0.537c-2.724-4.535-4.111-2.445-3.088-7.617c-2.401-2.435-0.555-2.554-5.337-3.665
	c-0.412-0.437-0.879-0.793-1.361-1.089c-0.447-1.069-0.738-2.269-1.697-2.992c-0.382-1.034-0.362-2.129-0.261-3.193
	c-0.186-0.597-0.372-1.21-0.532-1.792l-0.562,0.251c0.818-0.457,0.598-1.441,0.703-2.204c-0.999,0.256-1.953,0.623-2.937,0.894
	c-1.812-1.257-7.973-11.153-4.087-16.815c-0.025-0.326-0.085-0.979-0.115-1.305c0.974-0.547,2.084-1.039,2.45-2.194
	c0.301,0,0.909-0.005,1.215-0.01c0-0.276,0.005-0.828,0.01-1.105c0.186,0.085,0.562,0.261,0.753,0.346
	c0.693-0.497,1.416-0.949,2.164-1.361c-0.131-0.216-0.392-0.658-0.522-0.874c0.216-0.02,0.648-0.055,0.864-0.075
	c0.47-0.815,5.96-4.567,6.743-5.076c0.02-0.291,0.065-0.874,0.09-1.16c0.974-0.994,1.838-2.094,2.867-3.028
	c0.005-0.146,0.02-0.437,0.025-0.582c2.365-1.019,4.192-2.957,6.612-3.871c0.592-0.532,6.785-4.592,7.893-5.016
	c0.6-0.661,12.692-8.523,13.446-9.002c2.691-2.244,4.835-5.478,8.601-5.97c2.912-2.028,7.27-1.737,9.183-5.101
	c-0.668-5.932-8.162-10.379-3.781-18.898c2.601,0.02,5.377,0.969,7.888,0.1c0.219-8.193-20.02-181.929-16.282-220.946
	c-0.248-10.506-86.046,48.145-95.406,56.544c-0.766,0.306-7.267,4.721-7.886,5.265c-4.201,3.696,10.16,40.066,11.951,46.499
	c44.017,146.724,9.02,224.472,16.655,289.286c1.183,13.805,3.921-3.706-1.054,31.677c-4.141,20.518-12.74,41.329-13.491,43.676
	c-10.131,34.3-12.077,72.238-21.333,109.459c-33.941,136.481-20.196,104.191-32.52,187.292c-1.207,7.529-0.073,17.751,0.728,19.385
	c2.405,0.226,4.825,1.431,6.025,3.61c2.446,4.294,5.436,6.581,3.073,11.558c0.211,0.161,0.623,0.477,0.833,0.638
	c0.608,1.546,1.531,2.942,2.325,4.418c2.315-0.849,4.755-1.667,7.26-1.918c18.641-0.861,15.382,0.198,20.169,5.272
	c0.788,1.702,2.31,2.892,3.304,4.484c1.27,1.667,2.008,3.655,3.023,5.488c0.671,3.037,2.416,5.983,2.144,9.796
	c-0.211,3.598,3.274,13.015,4.117,16.006c4.843,0.607,2.237-0.438,12.01,1.115c0.171,0.678,0.336,1.346,0.507,2.068
	c-6.967-0.245-14.661-0.934-14.661-0.934c-1.632,1.125-3.675,0.798-5.538,0.803c-0.166-0.186-0.492-0.557-0.658-0.743
	c-4.056-0.496-11.204-3.771-11.352-4.062c-0.854-0.296-1.848-0.261-2.49-0.949c-1.27-0.623-2.576-1.18-3.956-1.461
	c-1.65-1.147-6.995-1.248-12.236-7.23c-0.695-1.804-4.821-6.608-6.181-7.993c-1.416-0.141-1.049,1.456-1.115,2.39
	c0.447,0.196,0.904,0.417,1.366,0.658c-0.407,0.015-1.21,0.05-1.617,0.065c-0.587,3.284-0.06,6.643-0.151,9.971
	c1.21,2.521,2.425,5.116,2.887,7.908c-0.156,1.461-0.768,2.827-1.225,4.227c-2.753,4.163,0.328,3.767-2.42,7.155
	c-0.718,0.241-1.426,0.517-2.124,0.823c-1.1-0.828-2.003-1.858-2.957-2.822c-1.617,0.607-1.762,3.178-0.904,4.604
	c1.135,2.064-0.11,4.328-0.833,6.316c0.918,8.94,3.571,0.335-0.954,15.404c0.497,0.161,1.004,0.341,1.511,0.552
	c-0.351-0.005-1.049-0.02-1.401-0.025c3.666,38.671,13.81,46.338,6.07,57.097c-1.18,1.677-3.253,2.887-3.299,5.171
	c-8.729,7.898-15.711,2.523-21.7,1.175c-1.366-0.884-2.515-2.018-3.535-3.264c-1.19-0.884-2.696-1.416-3.389-2.817
	c-1.029-0.442-2.109-0.703-3.198-0.859c-0.11-0.161-0.336-0.482-0.447-0.643c-2.44-0.738-3.279-3.349-4.584-5.232
	c-0.964-0.763-1.592-1.762-2.104-2.837c-0.869-0.206-1.757-0.221-2.626-0.281c-1.662-2.207-4.878-4.215-6.552-7.406
	c0.186-0.437,0.552-1.3,0.733-1.737c-1.481-0.823-2.576-2.078-2.706-3.821c-1.17-0.075-2.33-0.105-3.489-0.115
	c-0.699-3.227-3.544-2.505-3.078-7.667c-0.708-0.813-1.401-1.617-2.064-2.44c-3.154-0.272-4.008-3.147-6.301-6.196
	c0.03-0.924,0.015-1.818-0.06-2.696c-1.25-0.673-1.305-2.189-1.858-3.324c-1.295-0.668-2.897-1.024-3.54-2.485
	c-1.22-2.495-2.746-4.865-3.65-7.486c-0.542-1.33,0.914-2.576,0.266-3.861c-0.442-1.31-0.763-2.862-2.295-3.238
	c-0.156-0.196-0.467-0.593-0.623-0.788c-0.87-2.686-3.882-9.634-1.155-10.308c-0.921-2.813-0.278-0.597-0.984-3.68
	c0.166-0.813,0.316-1.632,0.477-2.41c-0.713,0.07-1.426,0.156-2.129,0.266c-0.351-0.753-0.748-1.481-1.24-2.119
	c-0.349-1.677-3.426-11.798-3.098-13.702c0.402-0.412,0.859-0.743,1.366-0.994c-0.015-0.201-0.05-0.607-0.065-0.808
	c-0.457-0.291-0.909-0.562-1.351-0.823c-0.02-4.064-2.029-0.501-3.781-7.185c-1.31-2.711-3.143-5.829-1.863-8.882
	c-1.074-1.792-1.642-3.776-1.767-5.839c-1.054,0.231-2.129,0.336-3.203,0.382c-0.221-2.847-2.289-4.991-3.128-7.657
	c0.537-0.909,1.1-1.808,1.662-2.676c-0.683-0.065-1.366-0.105-2.043-0.126c-0.176-0.989-0.387-1.948-0.592-2.902
	c-0.929-0.356-1.868-0.703-2.802-0.994c-2.842-6.46-4.564-6.258-3.329-10.453c-0.628-0.753-1.265-1.486-1.908-2.199
	c0.035-0.904,0.075-1.782,0.116-2.651c-0.783,0.186-1.566,0.392-2.345,0.597c-1.923-3.31-3.387-5.121-3.048-6.522
	c0.412-0.713,0.808-1.416,0.974-2.204c-1.853-0.447-1.973-2.716-2.254-4.248c-0.793-0.075-1.582-0.141-2.365-0.176
	c-1.002-3.518-2.815-3.291-1.049-7.627c-0.382-0.327-0.758-0.633-1.13-0.919c0.05-1.014,0.12-2.013,0.191-2.997
	c-0.743,0.12-1.476,0.266-2.204,0.427c-2.355-4.879-4.018-14.542,0.065-19.31c-0.025-0.919-0.115-1.813-0.05-2.696
	c0.542-0.718,1.185-1.345,1.807-1.963c-0.01,0.557-0.03,1.677-0.04,2.234c1.29-0.984,2.224-2.45,3.831-2.957
	c5.526-2.083,7.87-4.237,15.62-6.02c2.922-4.218,2.852-1.955,5.508-3.946c1.002-0.163,8.064-2.526,10.273-3.987
	c0.929-0.231,1.868-0.432,2.812-0.597c1.461-0.969,3.048-1.767,4.8-2.018c1.993-1.431,3.901-3.113,6.291-3.826
	c3.083-1.135,6.733-0.597,9.454-2.706c4.007-3.124,2.627-3.671,1.275-8.109c-2.309-3.704-2.049-3.483-1.486-7.622
	c-0.055-0.226-0.166-0.668-0.221-0.889c0.678-0.542,1.326-1.115,1.923-1.727c1.481,0.045,2.847,0.653,4.233,1.12
	c8.352-110.171-10.108-159.619,21.183-244.615c3.895-12.316,9.37-19.513,8.666-27.7c-11.803-106.796,3.44-48.717-31.3-172.992
	c-0.146-0.206-0.437-0.618-0.582-0.823c0,0-8.718-23.678-10.468-30.225c-9.299-37.929-30.424-64.905-61.299-103.318
	c-22.703-5.567-39.424-19.415-49.084-37.802c-15.693-28.738-33.772-100.479-10.765-135.863c9.806-15.636,2.277-5.542,8.902-20.626
	c1.361-2.922,0.954-6.241,1.858-9.283c0.402-2.33,1.531-4.408,2.49-6.532c1.082-2.335,1.191-6.727,4.78-12.201
	c1.084-1.652,1.054-3.69,1.32-5.573c11.582-69.981,3.108-65.431,4.669-86.273c-1.205-1.501-1.095-3.394-0.728-5.171
	c-0.046-11.676-3.375-18.082-3.846-20.48c-1.419-8.301-1.489-11.282-1.361-47.251c0.146-2.365-1.572-5.217,0.552-7.099
	c-6.887-20.795-1.456-13.235-7.968-36.868c-0.341,0.13-1.019,0.392-1.361,0.522c-0.668,0.542-1.361,1.049-2.054,1.566
	c-1.049,0.346-1.802,1.155-2.546,1.933c-3.359,0.734-18.953,16.231-21.444,17.568c-5.828,6.106-31.671,27.539-31.671,27.539
	c-0.266,0.055-0.793,0.161-1.059,0.216c-2.328,2.524-10.983,8.094-18.657,13.983c-0.221,0.09-0.663,0.271-0.884,0.362
	c-2.013,2.199-4.981,3.173-6.984,5.402c-3.124,1.869-13.264,9.859-16.057,14.997c-6.904,5.638-18.942,55.659-23.156,69.624
	c-8.746,21.94-21.317,64.339-21.63,65.341c-16.986,64.422-1.019,50.485,17.884,78.49c3.033,4.93,2.937,10.976,5.493,16.092
	c4.647,10.902,1.556-2.001,9.424,26.721c-0.169,5.205-7.538,4.216-8.54,4.162c-12.863-8.318-11.027-23.425-15.635-30.205
	c-1.988-1.346-4.649-0.467-6.909-0.683c-0.392,0.331-0.778,0.673-1.165,1.019c-3.203,11.125-7.073,21.721-4.88,36.16
	c0.979,4.443,0.02,9.058,1.064,13.511c1.568,19.776,1.097,23.847-1.637,31.44c-1.044,0.542-2.094,1.095-3.028,1.823
	c-1.577,0.146-3.153,0-4.72-0.11c-0.161,0.301-0.482,0.894-0.643,1.195c-6.031,1.802-6.282-1.68-8.058-7.853
	c-0.889,0.146-1.346,1.085-2.033,1.587c-1.341,1.175-3.163,1.582-4.89,1.767c-1.095-1.17-2.119-2.45-2.32-4.087
	c-0.191-0.201-0.562-0.603-0.748-0.803c-0.055-0.945-1.567-10.647-2.52-10.83c-1.25-0.055-2.445,0.352-3.64,0.653
	c-3.3-2.232-1.688-2.613-1.496-5.558c-0.356-0.05-1.069-0.156-1.426-0.211c-1.625-14.366,0.498-3.808-2.274-19.792
	c-0.331-2.184-2.079-3.971-1.888-6.251c0.275-4.465-8.215-24.831-8.119-26.651c0.107-10.214-1.626-31.914,1.084-37.199
	c0.1-3.163,0.688-6.271,0.793-9.434c0.485-1.886-0.476-16.539,1.341-21.68c0.748-1.456,1.587-2.907,1.828-4.554
	c0.131-0.984,0.367-1.938,0.994-2.716c-0.131-2.541,1.135-4.78,1.833-7.14c1.419-4.257,6.733-40.608,6.733-40.608
	c0.02-0.311,0.065-0.934,0.085-1.245c0.141-0.226,0.412-0.683,0.552-0.914c-0.931-16.39,21.146-122,37.852-145.97
	c2.947-4.284,4.645-2.168,10.91-14.139c18.648-26.804,40.591-49.947,64.819-71.622c-0.156-0.387-0.306-0.763-0.452-1.14
	c0.206,0.221,0.628,0.668,0.838,0.889c25.773-24.272,28.542-34.682,48.627-53.853c0.959-0.788,1.958-1.612,2.375-2.837
	c0.271-0.07,0.818-0.211,1.09-0.286c11.531-11.702,31.054-24.702,31.054-24.702c1.225-0.236,2.295-0.879,2.5-2.214
	c0.286-0.02,0.854-0.055,1.135-0.075c0.221-0.201,0.658-0.603,0.879-0.803c2.47-0.783,4.388-2.611,6.683-3.751
	c1.331-0.798,3.158-0.969,3.926-2.495c0.793-0.035,1.597-0.055,2.4-0.07c0.591-1.551,1.994-0.575,5.849-1.802
	c3.429-0.713,6.628-2.144,9.951-3.203c2.611-1.275,5.618-0.939,8.294-2.053c0.778-1.371,2.591-0.658,3.871-0.813
	c3.259,0.271,6.638-0.477,9.816,0.397c2.621,0.582,5.352,0.296,7.963,0.939c2.134,0.407,4.489,0.808,6.487-0.286
	c-0.03-0.382-0.095-1.14-0.131-1.521c0.577,0.477,1.13,0.979,1.697,1.481c1.069-0.618,1.225-1.948,2.134-2.716
	c0.166-0.467,0.331-0.929,0.507-1.391c0.954-0.246,1.792-0.733,2.415-1.516c-0.161-0.176-0.477-0.532-0.638-0.708
	c1.682,0.402,3.369-0.136,5.051-0.271c0.1-0.196,0.291-0.587,0.392-0.788c0.778-0.06,1.572-0.11,2.365-0.156
	c0.236-0.828,0.472-1.647,0.723-2.465c0.05,0.407,0.141,1.225,0.186,1.632c1.572-0.005,3.138-0.191,4.715-0.261
	c-0.03-0.276-0.085-0.833-0.11-1.11c-1.17-0.482-2.325-0.989-3.454-1.536c1.14-1.074,1.752-2.525,2.571-3.831
	c1.19-0.266,2.696-0.141,3.439-1.305c-2.104-0.241-4.222-0.251-6.331-0.336c-0.08-0.266-0.241-0.793-0.321-1.054
	c-0.306-0.03-0.924-0.09-1.235-0.12c-0.181-0.557-0.362-1.115-0.542-1.667c0.517-0.281,1.034-0.562,1.556-0.838
	c-0.261-0.241-0.783-0.718-1.044-0.959c0.156,0.025,0.467,0.065,0.623,0.085c1.898-0.864,3.414-2.671,5.648-2.646
	c0.377-1.747,1.406-3.238,1.978-4.92c0.291-0.085,0.879-0.256,1.17-0.346c1.555-7.94-1.66-6.243-2.395-10.343
	c0.04-2.706,0.171-5.417-0.221-8.104c-0.196,0.266-0.587,0.793-0.783,1.059c0.08-0.613,0.131-1.225,0.206-1.833
	c2.925-5.036-2.292-62.877-2.299-63.89c-0.231,0.015-0.693,0.045-0.929,0.06c0.191-0.06,0.577-0.181,0.768-0.236
	c-2.311-18.109,0.354-24.896,5.116-39.233c0.818-1.145,1.054-2.631,2.043-3.665c0.02-0.547,0.04-1.1,0.065-1.647
	c0.226-0.025,0.683-0.07,0.909-0.095c0.035-0.587,0.08-1.18,0.131-1.767c0,0,6.903-11.399,7.024-11.643
	c0.663-0.311,1.255-0.743,1.732-1.3c0.351-0.738,0.718-1.471,1.085-2.199c0.251-0.035,0.753-0.11,1.004-0.146
	c0.216-0.582,0.447-1.165,0.688-1.742c1.858-0.849,2.43-2.962,3.951-4.187c1.331-1.105,2.43-2.455,3.299-3.951
	c0.276-0.055,0.828-0.161,1.105-0.211c0.658-0.803,1.2-1.797,2.239-2.164c0.015-0.146,0.045-0.432,0.06-0.577
	c0.959-0.216,1.868-0.613,2.656-1.21c-0.186-0.592-0.346-1.185-0.517-1.772c0.668,0.628,1.506,0.979,2.45,0.939
	c-0.025-0.261-0.085-0.788-0.11-1.049c0.276-0.045,0.833-0.131,1.115-0.176c0.582-0.638,1.19-1.255,1.802-1.878
	c0.844-0.09,1.978,0.156,2.209-0.954c0.763-0.1,1.702-0.04,1.787-1.049c0.311-0.045,0.939-0.141,1.25-0.186
	c0.733-1.054,2.264-0.763,3.028-1.797c0.306-0.045,0.914-0.131,1.22-0.176c2.73-1.987,12.666-4.946,19.119-4.986
	c0.763,0.196,1.346-0.191,1.757-0.808c-1.597-0.11-3.248-0.09-4.72-0.803c-4.73,0.005-9.665-1.456-14.234,0.286
	c0.01-0.407,0.035-1.215,0.045-1.617c-1.346,0.377-2.736,0.422-4.117,0.372c0.964-0.382,1.938-0.738,2.922-1.079
	c1.21-0.949,3.153-0.437,4.007-1.858C445.839,55.839,447.998,56.125,450.112,56.024 M488.014,1513.483
	c-1.863,0.658-4.062,0.256-5.648,1.617c-0.472,1.742-1.024,3.49-1.893,5.096c-1.019,1.742-1.326,3.821-2.586,5.448
	c0.417,2.089,2.169,3.399,3.284,5.106c1.456,2.3,3.68,3.941,5.473,5.97c1.275,1.526,3.203,2.179,4.815,3.274
	c1.918,1.506,4.458,1.069,6.612,1.983c0.843,0.311,1.687,0.648,2.515,1.034c1.576,0.512,3.083,1.235,4.489,2.134
	c2.119,0.246,3.911,1.366,5.824,2.199c2.671,0.592,4.981,2.35,7.767,2.47c-0.607-3.424-1.762-6.713-2.46-10.112
	c-0.402-2.139-1.928-3.846-2.249-5.99c-0.532-2.792-1.777-5.342-2.676-8.008c-1.351-3.675-3.595-6.924-6.171-9.836
	c-1.095-1.13-1.833-2.927-3.585-3.078c-2.415-0.331-4.85,0.045-7.27,0.09C492.167,1513.022,490.008,1512.715,488.014,1513.483z"/>
</svg>
